<?xml version="1.0" standalone="no"?>
<!DOCTYPE svg PUBLIC "-//W3C//DTD SVG 20010904//EN"
 "http://www.w3.org/TR/2001/REC-SVG-20010904/DTD/svg10.dtd">
<svg version="1.0" xmlns="http://www.w3.org/2000/svg"
 width="200.000000pt" height="200.000000pt" viewBox="0 0 200.000000 200.000000"
 preserveAspectRatio="xMidYMid meet">

<g transform="translate(0.000000,200.000000) scale(0.100000,-0.100000)"
fill="#000000" stroke="none">
<path d="M585 1916 c-22 -22 -25 -34 -25 -96 l0 -70 -172 0 c-146 0 -179 -3
-213 -19 -50 -22 -91 -69 -105 -119 -6 -22 -10 -184 -10 -408 0 -457 -11 -424
146 -424 l104 0 0 -194 c0 -192 0 -194 28 -247 20 -39 38 -58 71 -76 43 -23
50 -23 344 -23 l299 0 52 -47 c175 -158 445 -171 633 -28 234 176 267 516 72
729 -27 30 -70 67 -94 83 l-45 28 0 279 0 280 -185 185 -185 186 -345 3 -345
3 -25 -25z m625 -253 c0 -82 5 -155 10 -163 7 -12 42 -16 167 -20 l158 -5 0
-208 0 -208 -110 -3 c-60 -2 -120 -7 -132 -11 -21 -7 -22 -5 -16 29 10 60 -44
98 -89 64 -28 -22 -118 -181 -118 -209 0 -31 12 -42 115 -104 46 -28 92 -48
109 -48 56 0 78 78 31 109 -14 9 -25 20 -25 24 0 5 30 13 68 19 166 28 326
-59 400 -217 23 -50 27 -69 27 -152 -1 -84 -4 -102 -30 -155 -36 -76 -109
-149 -183 -183 -50 -24 -69 -27 -157 -27 -89 0 -106 3 -157 28 -116 57 -188
158 -212 297 -15 87 -24 100 -68 100 -48 0 -61 -25 -55 -105 3 -38 12 -89 21
-112 l15 -43 -151 0 -151 0 6 398 c4 218 7 544 7 725 l0 327 260 0 260 0 0
-147z m185 -3 l59 -60 -62 0 -62 0 0 60 c0 33 1 60 3 60 1 0 29 -27 62 -60z
m-835 -645 c0 -602 0 -615 -20 -635 -25 -25 -55 -25 -80 0 -20 20 -20 33 -20
604 0 321 -3 598 -6 615 l-6 31 66 0 66 0 0 -615z m-266 589 c14 -13 16 -60
16 -355 l0 -339 -60 0 -60 0 0 339 c0 373 0 371 60 371 16 0 36 -7 44 -16z"/>
<path d="M1430 830 c-11 -7 -16 -37 -20 -122 l-5 -113 -80 -3 c-89 -3 -115
-17 -115 -62 0 -51 23 -60 162 -60 165 0 158 -9 158 187 0 133 -2 152 -18 166
-20 19 -59 22 -82 7z"/>
</g>
</svg>
