<?xml version="1.0" ?><!DOCTYPE svg  PUBLIC '-//W3C//DTD SVG 1.1//EN'  'http://www.w3.org/Graphics/SVG/1.1/DTD/svg11.dtd'><!-- Uploaded to: SVG Repo, www.svgrepo.com, Generator: SVG Repo Mixer Tools -->
<svg fill="#000000" width="800px" height="800px" viewBox="0 0 32 32" style="fill-rule:evenodd;clip-rule:evenodd;stroke-linejoin:round;stroke-miterlimit:2;" version="1.1" xml:space="preserve" xmlns="http://www.w3.org/2000/svg" xmlns:serif="http://www.serif.com/" xmlns:xlink="http://www.w3.org/1999/xlink"><g id="Icon"/><path d="M25,8c0,-0.552 -0.448,-1 -1,-1l-16,0c-0.552,0 -1,0.448 -1,1l0,16c0,0.552 0.448,1 1,1l16,0c0.552,0 1,-0.448 1,-1l0,-16Zm-2,1l-0,14c0,0 -14,0 -14,0c0,0 0,-14 0,-14l14,-0Z"/><path d="M20.5,23.5c0,-0.276 -0.224,-0.5 -0.5,-0.5l-8,0c-0.276,0 -0.5,0.224 -0.5,0.5l0,3c0,0.276 0.224,0.5 0.5,0.5l8,-0c0.276,0 0.5,-0.224 0.5,-0.5l0,-3Zm-1,0.5l0,2c0,-0 -7,-0 -7,-0c0,-0 0,-2 0,-2l7,0Z"/><path d="M21.5,5.5c0,-0.276 -0.224,-0.5 -0.5,-0.5l-10,0c-0.276,0 -0.5,0.224 -0.5,0.5l0,3c0,0.276 0.224,0.5 0.5,0.5l10,-0c0.276,-0 0.5,-0.224 0.5,-0.5l0,-3Zm-1,0.5l0,2c-0,-0 -9,-0 -9,-0c-0,-0 0,-2 0,-2l9,0Z"/><path d="M14.5,5.5l0,-2.095c0,-0.276 -0.224,-0.5 -0.5,-0.5c-0.276,-0 -0.5,0.224 -0.5,0.5l0,2.095c0,0.276 0.224,0.5 0.5,0.5c0.276,-0 0.5,-0.224 0.5,-0.5Z"/><path d="M18.5,5.5l0,-2.095c0,-0.276 -0.224,-0.5 -0.5,-0.5c-0.276,-0 -0.5,0.224 -0.5,0.5l0,2.095c0,0.276 0.224,0.5 0.5,0.5c0.276,-0 0.5,-0.224 0.5,-0.5Z"/><path d="M15.553,11.776l-2,4c-0.078,0.155 -0.069,0.339 0.022,0.487c0.091,0.147 0.252,0.237 0.425,0.237l3.191,-0c-0,-0 -1.638,3.276 -1.638,3.276c-0.124,0.247 -0.023,0.548 0.223,0.671c0.247,0.124 0.548,0.023 0.671,-0.223l2,-4c0.078,-0.155 0.069,-0.339 -0.022,-0.487c-0.091,-0.147 -0.252,-0.237 -0.425,-0.237l-3.191,-0c0,0 1.638,-3.276 1.638,-3.276c0.124,-0.247 0.023,-0.548 -0.223,-0.671c-0.247,-0.124 -0.548,-0.023 -0.671,0.223Z"/><path d="M15.5,26.5l0,2.095c0,0.277 0.224,0.5 0.5,0.5l3,0c0.276,0 0.5,-0.224 0.5,-0.5c0,-0.276 -0.224,-0.5 -0.5,-0.5l-2.5,0c-0,0 0,-1.595 0,-1.595c0,-0.276 -0.224,-0.5 -0.5,-0.5c-0.276,-0 -0.5,0.224 -0.5,0.5Z"/></svg>