<?xml version="1.0" standalone="no"?>
<!DOCTYPE svg PUBLIC "-//W3C//DTD SVG 20010904//EN"
 "http://www.w3.org/TR/2001/REC-SVG-20010904/DTD/svg10.dtd">
<svg version="1.0"    xmlns="http://www.w3.org/2000/svg"
 width="1470.000000pt" height="980.000000pt" viewBox="0 0 1470.000000 980.000000"
 preserveAspectRatio="xMidYMid meet">

<g transform="translate(0.000000,980.000000) scale(0.100000,-0.100000)"
fill="#000000" stroke="none">
<path d="M8460 8199 c-366 -42 -716 -218 -962 -485 -55 -59 -133 -154 -158
-192 l-15 -23 -245 36 c-337 50 -412 57 -533 44 -129 -13 -209 -33 -422 -107
-391 -136 -595 -202 -675 -219 -116 -24 -364 -24 -477 0 -126 27 -149 35 -976
361 -427 168 -791 306 -808 306 -131 0 -197 -163 -101 -252 17 -17 198 -93
517 -218 270 -106 618 -243 775 -305 476 -188 526 -200 830 -200 169 0 233 4
300 18 47 10 279 83 515 162 237 80 459 149 495 155 103 16 185 12 397 -19
109 -17 414 -62 678 -101 500 -74 530 -81 569 -134 30 -40 29 -130 -1 -172
-44 -61 -58 -63 -420 -70 -742 -14 -809 -17 -840 -40 -15 -11 -57 -72 -94
-135 -90 -156 -726 -1259 -865 -1499 -223 -388 -339 -588 -355 -610 l-16 -24
-189 84 c-293 129 -296 131 -560 396 -127 127 -262 257 -299 289 -79 66 -203
149 -290 193 -112 56 -1000 420 -1030 423 -57 4 -74 -1 -110 -32 -66 -58 -71
-153 -12 -210 24 -23 135 -74 427 -195 589 -245 585 -243 657 -287 121 -72
184 -127 433 -378 290 -291 332 -322 613 -446 105 -47 196 -89 201 -94 6 -5
-1 -28 -17 -57 -52 -95 -54 -164 -7 -277 12 -29 9 -37 -80 -190 -53 -91 -95
-176 -97 -196 -7 -48 12 -104 44 -129 31 -25 33 -19 -74 -203 -43 -75 -77
-145 -80 -167 -7 -49 12 -105 43 -129 13 -10 24 -22 24 -25 0 -4 -73 -134
-163 -289 -90 -155 -225 -389 -300 -519 -76 -131 -140 -251 -143 -267 -16 -80
38 -163 115 -176 42 -7 114 17 137 46 7 8 145 246 309 529 163 283 300 518
304 522 9 10 190 -94 191 -109 0 -6 -102 -188 -227 -405 -209 -362 -227 -397
-227 -441 0 -80 60 -140 142 -141 82 -2 102 20 236 253 173 299 253 437 298
513 l40 67 61 -5 c93 -9 113 9 219 191 48 83 89 154 91 158 1 5 22 4 45 -2 53
-15 109 -1 143 35 13 14 65 96 114 182 l90 157 62 6 c61 6 131 38 165 75 9 11
70 114 136 229 l121 210 113 0 c92 1 123 5 169 23 83 33 146 79 194 140 56 72
85 149 92 244 l6 78 36 10 c94 26 204 116 254 208 32 60 57 151 57 212 l0 45
52 19 c227 80 348 328 271 555 -14 42 -14 44 9 59 97 65 184 202 195 307 l6
57 66 -8 c36 -5 541 -9 1121 -9 l1055 0 52 27 c29 16 67 41 86 58 50 44 97
138 105 213 l7 62 247 5 c229 5 249 6 275 26 15 11 36 36 45 55 17 32 18 93
18 851 0 909 3 870 -67 918 -36 25 -39 25 -280 28 l-243 3 0 42 c-1 50 -35
139 -74 190 -15 20 -49 49 -74 66 -99 63 -54 61 -1277 60 -610 -1 -1144 -5
-1185 -10z m2304 -305 c14 -14 16 -117 16 -990 0 -961 0 -974 -20 -994 -20
-20 -33 -20 -977 -20 -1054 0 -1092 2 -1265 60 -51 17 -145 60 -208 95 -137
75 -179 88 -285 87 -200 -1 -369 -132 -419 -325 l-13 -52 -54 3 c-68 4 -178
-21 -240 -55 -104 -56 -191 -172 -219 -292 -15 -65 -9 -178 15 -245 16 -48 16
-48 -7 -64 -49 -33 -120 -117 -150 -180 -40 -86 -50 -215 -23 -307 l17 -60
-34 -25 c-65 -48 -111 -105 -147 -179 -35 -73 -36 -80 -36 -186 0 -103 2 -114
32 -177 17 -37 53 -90 79 -118 25 -27 44 -56 41 -63 -7 -19 -187 -330 -196
-340 -5 -5 -73 30 -152 76 -79 46 -297 172 -484 280 -187 109 -346 201 -354
206 -14 9 -3 33 85 181 35 60 389 672 606 1050 293 508 662 1147 684 1181 l22
36 494 7 c355 5 512 11 561 21 178 37 315 181 347 368 32 183 -71 382 -242
466 -68 34 -82 37 -377 81 -106 16 -195 31 -198 34 -8 8 149 160 222 214 141
104 329 186 510 222 83 17 172 18 1222 19 1016 1 1133 -1 1147 -15z m596 -989
l0 -646 -142 3 -143 3 -3 643 -2 642 145 0 145 0 0 -645z m-3209 -1110 c83
-49 108 -72 126 -114 43 -101 -61 -221 -167 -191 -54 16 -185 99 -203 130 -25
41 -22 121 5 155 60 77 134 83 239 20z m-387 -456 c275 -159 303 -177 322
-218 19 -41 14 -109 -11 -147 -23 -35 -98 -68 -139 -60 -38 7 -467 252 -518
296 -103 89 -44 250 91 250 39 0 73 -16 255 -121z m-346 -483 c139 -71 289
-166 310 -196 42 -61 21 -168 -39 -200 -42 -23 -78 -29 -116 -18 -57 16 -332
179 -355 211 -46 65 -27 159 41 204 44 30 99 29 159 -1z m-148 -591 c36 -21
77 -49 93 -63 67 -63 50 -184 -33 -227 -51 -26 -105 -19 -185 25 -88 49 -121
81 -137 132 -10 33 -9 46 8 86 42 101 132 118 254 47z m-1262 -770 c185 -107
345 -200 354 -207 16 -12 14 -19 -28 -91 -32 -56 -50 -77 -60 -73 -9 3 -115
64 -237 134 -122 71 -279 161 -350 202 l-127 73 36 66 c43 77 53 91 66 91 5 0
161 -88 346 -195z m-284 -399 c78 -46 166 -97 196 -114 30 -17 61 -36 69 -41
11 -7 5 -24 -28 -85 -23 -41 -46 -78 -50 -80 -6 -4 -439 239 -456 256 -3 3 15
42 40 87 43 75 48 80 67 70 12 -6 85 -48 162 -93z"/>
<path d="M9723 7639 c-17 -5 -43 -22 -57 -37 -58 -61 -446 -635 -452 -668 -12
-66 17 -124 77 -155 34 -17 60 -19 224 -19 102 0 185 -3 185 -6 0 -3 -55 -85
-121 -182 -137 -198 -153 -230 -143 -276 22 -105 134 -159 220 -107 32 19 444
605 471 670 18 41 9 100 -19 136 -39 50 -61 54 -267 55 -121 1 -191 5 -191 12
0 5 57 91 127 191 120 172 127 185 131 237 3 45 0 61 -20 90 -37 54 -103 78
-165 59z"/>
</g>
</svg>
